Patient4_TMGait_0pt7_01_left_26_EMG.mot
version=1
nRows=27
nColumns=33
inDegrees=no
endheader
time	1LAddLong	2LGlutMax	3LGlutMed	4LIliopsoas	5LSemiMemb	6LBicFemLong	7LRecFem	8LVastMed	9LVastLat	10LGasMed	11LTibAnt	12lTibPost	13LPeroneusLong	14LSol	15LExtDigLong	16LFlexDigLong	17RAddLong	18RGlutMax	19RGlutMed	20RIliopsoas	21RSemiMemb	22RBicFemLong	23RRecFem	24RVastMed	25RVastLat	26RGasMed	27RTibAnt	28RTibPost	29RPeroneusLong	30RSol	31RExtDigLong	32RFlexDigLong
30.76	0.0354	0.18814	0.15732	0.00351	0.02243	-0.049896	-0.39795	0.003662	0.02121	-0.049133	0.00351	0.33554	0.18295	0.91187	0.001831	0.30121	0.068359	0.14404	-0.57724	0.036621	0.3479	-0.069885	0.033264	-0.19394	0.067749	-0.006714	-0.54535	-0.007172	-0.015411	0.10544	-0.000153	-0.014038
30.761	0.041199	0.19898	0.16266	0.002899	0.032806	-0.18616	-0.37949	0.000305	0.028229	-0.20721	-0.003052	-0.16281	0.16022	1.021	0.01358	-0.23468	0.050507	0.20264	-0.56763	0.014191	0.31006	-0.038147	-0.0737	-0.18524	-0.009003	-0.000916	-0.093689	-0.002747	0.11307	0.064392	-0.00412	-0.018005
30.762	0.033722	0.19836	0.22858	0.005493	0.012665	-0.2475	-0.35172	-0.001831	0.024261	-0.2179	-0.011444	0.006866	0.23529	0.4567	0.005493	-0.27359	0.013428	0.22339	-0.11002	0.04776	0.29465	-0.001526	-0.17273	-0.13168	-0.15442	0.001984	-0.075531	-0.001526	0.057373	0.094757	-0.00351	-0.011597
30.763	0.026245	0.20279	0.32135	-0.002136	-0.02121	-0.18478	-0.31403	0.004883	0.002747	-0.31738	-0.018616	0.14511	0.086823	0.059052	0.001526	0.17914	-0.031586	0.35629	-0.025177	0.13275	0.002441	0.015259	-0.23209	-0.080414	-0.23346	-0.002289	-0.17624	-0.003204	0.067139	0.098419	-0.003815	-0.006561
30.764	0.031891	0.22018	0.2594	0.00824	-0.00824	-0.028076	-0.31784	0.006561	-0.030823	-0.44571	-0.001678	0.26245	0.079651	-0.15564	0.030518	-0.037231	-0.019226	0.37506	-0.19486	0.13916	-0.00061	-0.02121	-0.28809	-0.094452	-0.21744	-0.012054	-0.31891	-0.001678	0.084991	0.047455	-0.005798	-0.006409
30.765	0.022278	0.20935	0.28686	-0.000305	-0.069275	0.090332	-0.31982	0.007935	-0.012817	0.006714	0.01358	-0.28061	0.075073	-0.43106	0.041809	-0.13123	-0.033264	0.38116	-0.16098	0.054474	0.038757	-0.056152	-0.3212	-0.074768	-0.30258	-0.00473	-0.27405	-0.004883	0.028229	0.02655	-0.002899	0.001984
30.766	0.021667	0.17868	0.26367	-0.005646	-0.14099	0.19119	-0.31387	0.006714	-0.018616	0.30472	0.00351	-0.30685	0.042572	-0.59464	0.030823	-0.16357	-0.021057	0.38589	-0.38834	-0.018616	0.020142	-0.11765	-0.32486	-0.047302	-0.28122	-0.005188	0.021973	0.000916	-0.033875	-0.037231	-0.002747	-0.014191
30.767	0.012665	0.1886	0.25559	-0.010376	-0.11322	0.097961	-0.31708	0.012665	-0.018005	0.42694	0.008545	-0.21286	0.032654	-0.392	0.029602	-0.004425	0.024719	0.3952	-0.49667	-0.035095	-0.003662	-0.19928	-0.23071	-0.11231	0.11429	-0.003204	0.18799	-0.001068	-0.017548	-0.069885	-0.009155	-0.003815
30.768	0.020447	0.2095	0.27405	0.02533	0.071259	-0.02594	-0.32303	0.007477	0.008392	0.14557	0.003815	0.01297	0.025635	0.18173	0.033875	-0.067444	0.062561	0.34576	-0.56869	-0.03006	0.10605	-0.26459	0.008698	-0.21316	0.6044	-0.005493	0.25635	-0.00351	-0.010071	-0.085907	-0.002747	-0.003967
30.769	0.031281	0.18555	0.26886	0.012817	0.15335	-0.036926	-0.31509	0.007935	0.037384	-0.54382	0.012512	0.035248	-0.010834	0.36987	0.007172	0.027313	0.059662	0.31448	-0.56763	-0.024414	0.38162	-0.29114	0.11353	-0.28854	0.61584	-0.007019	0.23056	0.001526	-0.0383	-0.077667	-0.001526	-0.015106
30.77	0.016785	0.18646	0.27237	-0.011749	0.068054	0.025177	-0.28885	0.002747	0.025787	-0.61813	0.015259	0.47318	-0.052338	0.30655	-0.054779	-1.0356	0.019379	0.28976	-0.64957	-0.046692	0.090942	-0.31067	0.19959	-0.24521	0.3302	-0.013428	-0.11551	0.002136	-0.022125	-0.072174	-0.003052	-0.009155
30.771	0.020752	0.18738	0.23819	0.004578	-0.005493	0.027008	-0.31097	0.003052	0.018616	-0.31052	0.006104	-0.19943	-0.041656	0.28336	-0.051727	-0.027924	0.014191	0.21149	-0.6514	-0.059052	-0.046234	-0.29236	-0.035858	-0.22598	-0.011902	-0.012817	-0.4863	-0.002441	-0.020447	-0.078278	-0.00946	-0.010376
30.772	0.023956	0.23697	0.26642	0.007782	-0.005951	0.021362	-0.31433	-0.00412	0.014038	-0.23163	0.011444	-0.041199	-0.055847	-0.45746	-0.04303	0.49545	0.03952	0.25238	-0.69321	0.006104	0.03479	-0.34332	-0.15839	-0.20355	-0.19104	-0.005188	-0.22797	0.000153	-0.011749	-0.045319	-0.003204	-0.014801
30.773	0.027618	0.21805	0.25772	0.015259	0.023346	-0.007172	-0.28519	-0.001984	0.039215	-0.26276	0.00824	0.37491	-0.034485	-0.62134	-0.027618	0.31708	0.088501	0.23224	-0.46295	0.042572	0.021057	-0.4245	-0.11566	-0.2655	-0.25253	-0.001526	0.098419	-0.007172	0.037537	0.03891	-0.001678	-0.005951
30.774	0.026855	0.2002	0.24155	0.011292	-0.002747	0.026245	-0.27954	0.007477	0.053711	-0.32654	0.001068	0.39368	0.11017	-0.62378	0.038452	-0.15488	0.12466	0.26749	-0.25177	0.068817	-0.036469	-0.48233	0.10483	-0.24597	-0.33859	-0.00351	-0.006866	0.001831	0.052032	-0.001984	0.001068	-0.015259
30.775	0.018616	0.20004	0.28793	0.011749	-0.025787	0.033875	-0.2478	-0.004578	0.068665	-0.27786	-0.014496	0.33218	0.16525	-0.56107	0.076294	-0.009003	0.12573	0.24246	-0.53696	0.061798	-0.014648	-0.52826	0.16037	-0.33234	-0.32471	-0.005035	0.085754	-0.00885	-0.0383	-0.11292	0	-0.013123
30.776	0.019836	0.15396	0.23697	0.005798	-0.023499	0.02121	-0.2269	0.001678	0.054626	-0.23346	-0.012665	0.16571	0.044708	-0.40283	0.071106	0.15701	0.12268	0.095062	-0.47958	0.009766	0.001831	-0.54169	0.11215	-0.44449	-0.045471	-0.005798	0.39475	-0.006866	-0.046539	-0.094452	-0.001984	-0.009766
30.777	0.025787	0.1387	0.24429	0.005035	-0.048828	-0.048523	-0.22232	0.004883	0.048523	-0.17914	-0.005646	-0.33417	-0.12543	0.74493	0.041046	-0.031738	0.097351	0.19211	-0.44266	-0.078888	0.017242	-0.53009	0.017548	-0.48553	0.70877	-0.008087	0.62607	-0.004578	-0.050354	-0.073242	-0.002594	-0.006409
30.778	0.040894	0.15488	0.21347	0.008698	-0.053864	-0.030975	-0.19623	0.004425	0.038757	0.080414	0.002289	-0.77743	-0.19272	1.0184	-0.019684	0.13565	0.071564	0.24033	-0.78857	-0.12909	-0.025024	-0.50171	0.00824	-0.42252	0.58823	-0.015564	0.49957	-0.000153	0.039368	-0.051422	-0.001678	-0.00946
30.779	0.026245	0.14404	0.23377	0.005188	-0.044403	-0.013123	-0.18921	0.00351	0.019379	0.23911	-0.007019	-0.042572	-0.069427	0.34805	-0.023804	0.035095	0.058594	0.24704	-0.74371	-0.10254	-0.13428	-0.44403	0.070953	-0.36957	-0.005493	-0.007935	0.16068	0.001984	0.16419	-0.066071	-0.000916	-0.003052
30.78	0.021973	0.13092	0.28473	0.007782	0.038757	-0.10361	-0.16739	0.003967	0.015869	0.094147	-0.00824	-0.16678	0.19379	-0.15335	0.007019	-0.10101	-0.007477	0.37811	-0.26901	-0.031433	-0.071716	-0.36911	0.006561	-0.24231	-0.44937	-0.006714	-0.23102	0.000305	0.30868	-0.060272	-0.003815	-0.003662
30.781	0.006409	0.094147	0.31281	-0.007629	0.03418	-0.045929	-0.16037	0.010376	0.016174	0.22354	-0.010529	-0.19379	0.3273	-0.056458	-0.032959	0.061798	-0.033417	0.40527	0.30807	0.087128	-0.062408	-0.27512	-0.1651	-0.14557	-0.63294	-0.007477	-0.33829	0.010071	-0.3157	-0.086212	0.000153	-0.00824
30.782	0.010834	0.098572	0.29343	0.000153	-0.011749	0.010071	-0.17761	0.002289	0.033875	0.19241	0.000763	-0.21423	0.18692	-0.44189	-0.065002	0.00824	-0.00412	0.28854	0.18188	0.066376	-0.13229	-0.1947	-0.32516	-0.10117	-0.46295	-0.004883	-0.40222	-0.001373	-0.20279	-0.10666	-0.001068	-0.007019
30.783	0.002441	0.11902	0.30014	-0.007324	-0.071259	0.030365	-0.18387	-0.006104	0.050354	0.12726	0.01297	-0.13489	0.046997	-1.1972	-0.071259	-0.20767	-0.021973	0.14191	-0.27313	-0.09201	-0.034332	-0.0914	-0.53116	0.070038	-0.27679	-0.006409	-0.39627	-0.001068	0.099945	-0.05661	-0.00061	-0.010834
30.784	0.010071	0.09079	0.30533	0.005035	-0.13626	-0.016174	-0.16724	-0.00061	0.053253	-0.081635	0.007629	-0.11429	-0.10727	-1.0947	-0.048523	-0.70084	-0.056763	0.040894	-0.53314	-0.1506	-0.007629	-0.054474	-0.56747	0.18768	-0.17487	-0.007935	-0.24979	-0.000305	0.058136	-0.0177	0	-0.000458
30.785	0.026398	0.089569	0.29022	0.007782	-0.1004	-0.072327	-0.14755	-0.001678	0.045166	-0.035095	0.016327	-0.14374	-0.16678	-0.47897	-0.049438	1.0646	0.000763	0.019836	-0.43045	-0.076752	-0.18555	0.009308	-0.27939	0.09079	0.062561	-0.011597	-0.055542	0.000305	-0.006561	0.020142	0.003204	-0.00946
30.786	0.017395	0.11856	0.23209	0.028839	0.012665	-0.046844	-0.12344	0.001221	0.048981	0.097351	0.02182	-0.10178	-0.15732	-0.068817	-0.04303	0.18234	0.020447	-0.072479	-0.065155	0.054474	-0.18707	0.062256	-0.16419	-0.15808	0.37521	-0.00885	0.016327	-0.004883	0.14343	0.00473	-0.000153	-0.014191
